<svg width="14" height="11" viewBox="0 0 14 11" fill="none" xmlns="http://www.w3.org/2000/svg">
<path d="M6.45175 10.046C6.5129 10.1348 6.59474 10.2074 6.6902 10.2576C6.78567 10.3078 6.8919 10.334 6.99974 10.334C7.10759 10.334 7.21382 10.3078 7.30928 10.2576C7.40475 10.2074 7.48658 10.1348 7.54774 10.046L13.5477 1.37932C13.6172 1.27936 13.6579 1.16227 13.6655 1.04079C13.6731 0.919306 13.6472 0.798068 13.5907 0.690248C13.5342 0.582429 13.4493 0.492151 13.3451 0.429224C13.2409 0.366297 13.1215 0.333128 12.9997 0.33332H0.999744C0.878307 0.333821 0.759303 0.367417 0.655531 0.430495C0.55176 0.493572 0.467146 0.583745 0.41079 0.691315C0.354434 0.798885 0.328468 0.919783 0.335684 1.04101C0.3429 1.16223 0.383025 1.27919 0.451744 1.37932L6.45175 10.046Z" fill="#062E7D"/>
</svg>
