<svg width="14" height="11" viewBox="0 0 14 11" fill="none" xmlns="http://www.w3.org/2000/svg">
<path d="M0.999744 10.6667H12.9997C13.1212 10.6663 13.2403 10.6328 13.3442 10.5697C13.4481 10.5067 13.5328 10.4165 13.5892 10.309C13.6456 10.2014 13.6717 10.0804 13.6645 9.95913C13.6573 9.83785 13.6172 9.72082 13.5484 9.62065L7.54841 0.953986C7.29974 0.594653 6.70108 0.594653 6.45175 0.953986L0.451744 9.62065C0.382294 9.72061 0.341567 9.8377 0.333988 9.95918C0.326408 10.0807 0.352267 10.2019 0.408753 10.3097C0.46524 10.4175 0.550195 10.5078 0.654387 10.5707C0.758579 10.6337 0.878024 10.6668 0.999744 10.6667Z" fill="#062E7D"/>
</svg>
