<svg width="179" height="212" viewBox="0 0 179 212" fill="none" xmlns="http://www.w3.org/2000/svg">
<g filter="url(#filter0_i_0_10)">
<path d="M179.477 32.1876C182.31 24.403 178.305 15.7567 170.388 13.3158C132.037 1.49076 91.8979 -2.4584 52.3526 1.46839C11.1339 5.56133 -9.10291 49.6395 5.06131 88.5638L46.0959 201.33C48.9287 209.115 57.5357 212.994 65.6827 211.492C76.4718 209.502 87.5367 209.503 98.3257 211.493C106.473 212.995 115.08 209.117 117.913 201.332L179.477 32.1876Z" fill="#EBEDF0"/>
</g>
<path d="M169.504 16.1826C175.687 18.0888 178.939 24.8947 176.658 31.1616L115.094 200.306C112.862 206.44 105.883 209.836 98.8698 208.542C87.7212 206.486 76.2875 206.486 65.1388 208.541C58.1251 209.834 51.1472 206.438 48.915 200.304L7.88046 87.538C-5.81215 49.9097 13.9174 8.29968 52.649 4.45371C91.799 0.566177 131.536 4.47588 169.504 16.1826Z" stroke="#F7F9FC" stroke-width="6"/>
<defs>
<filter id="filter0_i_0_10" x="0.562584" y="3.05176e-05" width="179.823" height="217.812" filterUnits="userSpaceOnUse" color-interpolation-filters="sRGB">
<feFlood flood-opacity="0" result="BackgroundImageFix"/>
<feBlend mode="normal" in="SourceGraphic" in2="BackgroundImageFix" result="shape"/>
<feColorMatrix in="SourceAlpha" type="matrix" values="0 0 0 0 0 0 0 0 0 0 0 0 0 0 0 0 0 0 127 0" result="hardAlpha"/>
<feOffset dy="6"/>
<feGaussianBlur stdDeviation="12"/>
<feComposite in2="hardAlpha" operator="arithmetic" k2="-1" k3="1"/>
<feColorMatrix type="matrix" values="0 0 0 0 0 0 0 0 0 0 0 0 0 0 0 0 0 0 0.1 0"/>
<feBlend mode="normal" in2="shape" result="effect1_innerShadow_0_10"/>
</filter>
</defs>
</svg>
